Night Vision 2011 HDTV XviD-SiC

 
http://www.imdb.com/title/tt1667317/


A womanizing reality-TV producer (Spencer) unwittingly sleeps with a mysterious woman (Alison), who turns out to be his own stalker.


Format : AVI
Format/Info : Audio Video Interleave
File size : 703 MiB
Duration : 1h 29mn
Overall bit rate : 1 103 Kbps

Video
ID : 0
Format : MPEG-4 Visual
Format profile : Advanced Simple@L5
Format settings, BVOP : 2
Format settings, QPel : No
Format settings, GMC : No warppoints
Format settings, Matrix : Default (H.263)
Muxing mode : Packed bitstream
Codec ID : XVID
Codec ID/Hint : XviD
Duration : 1h 29mn
Bit rate : 961 Kbps
Width : 640 pixels
Height : 368 pixels
Display aspect ratio : 16:9
Frame rate : 59.940 fps
Color space : YUV
Chroma subsampling : 4:2:0
Bit depth : 8 bits
Scan type : Progressive
Compression mode : Lossy
Bits/(Pixel*Frame) : 0.068
Stream size : 612 MiB (87%)
Writing library : XviD 1.2.1 (UTC 2008-12-04)

Audio
ID : 1
Format : MPEG Audio
Format version : Version 1
Format profile : Layer 3
Mode : Joint stereo
Mode extension : MS Stereo
Codec ID : 55
Codec ID/Hint : MP3
Duration : 1h 29mn
Bit rate mode : Constant
Bit rate : 128 Kbps
Channel(s) : 2 channels
Sampling rate : 48.0 KHz
Compression mode : Lossy
Stream size : 81.5 MiB (12%)
Alignment : Aligned on interleaves
Interleave, duration : 67 ms (4.00 video frames)
Interleave, preload duration : 216 ms
Title : Night.Vision.(2011).VODRiP
Writing library : LAME3.99r
Encoding settings : -m j -V 4 -q 2 -lowpass 17 -b 128

Source: SD Cable VOD - Our Own " You Jelly BRO ? "


Poster:

 
http://i.imgur.com/Sxju3.jpg


Screenshots:

 
http://i.imgur.com/5chGT.jpg


ENJOY!